<svg width="272" height="45" viewBox="0 0 272 45" fill="none" xmlns="http://www.w3.org/2000/svg">
<path d="M109.44 35V11.7273H118.622C120.387 11.7273 121.891 12.0644 123.133 12.7386C124.376 13.4053 125.323 14.3333 125.974 15.5227C126.633 16.7045 126.963 18.0682 126.963 19.6136C126.963 21.1591 126.63 22.5227 125.963 23.7045C125.296 24.8864 124.33 25.8068 123.065 26.4659C121.808 27.125 120.285 27.4545 118.497 27.4545H112.645V23.5114H117.702C118.649 23.5114 119.429 23.3485 120.042 23.0227C120.664 22.6894 121.126 22.2311 121.429 21.6477C121.739 21.0568 121.895 20.3788 121.895 19.6136C121.895 18.8409 121.739 18.1667 121.429 17.5909C121.126 17.0076 120.664 16.5568 120.042 16.2386C119.421 15.9129 118.633 15.75 117.679 15.75H114.361V35H109.44ZM131.163 35H125.89L133.924 11.7273H140.265L148.288 35H143.015L137.186 17.0455H137.004L131.163 35ZM130.833 25.8523H143.288V29.6932H130.833V25.8523ZM150.769 35V11.7273H159.951C161.708 11.7273 163.208 12.0417 164.451 12.6705C165.701 13.2917 166.652 14.1742 167.303 15.3182C167.962 16.4545 168.292 17.7917 168.292 19.3295C168.292 20.875 167.958 22.2045 167.292 23.3182C166.625 24.4242 165.659 25.2727 164.394 25.8636C163.136 26.4545 161.614 26.75 159.826 26.75H153.678V22.7955H159.03C159.97 22.7955 160.75 22.6667 161.371 22.4091C161.992 22.1515 162.455 21.7652 162.758 21.25C163.068 20.7348 163.224 20.0947 163.224 19.3295C163.224 18.5568 163.068 17.9053 162.758 17.375C162.455 16.8447 161.989 16.4432 161.36 16.1705C160.739 15.8902 159.955 15.75 159.008 15.75H155.689V35H150.769ZM163.337 24.4091L169.121 35H163.689L158.03 24.4091H163.337ZM170.563 15.7841V11.7273H189.676V15.7841H182.551V35H177.688V15.7841H170.563ZM191.14 11.7273H196.652L201.959 21.75H202.186L207.493 11.7273H213.004L204.515 26.7727V35H199.629V26.7727L191.14 11.7273Z" fill="#F2F6FF"/>
<path d="M89 0C91.7614 0 94 2.23858 94 5V40C94 42.7614 91.7614 45 89 45H5C2.23858 45 2.01337e-08 42.7614 0 40V5C0 2.23858 2.23858 5.63724e-08 5 0H89ZM21.1377 12.4092C19.0923 12.4092 17.2516 12.879 15.6152 13.8184C13.9789 14.7502 12.6831 16.1064 11.7285 17.8867C10.7741 19.6669 10.2969 21.8257 10.2969 24.3633C10.2969 26.8935 10.7668 29.0488 11.7061 30.8291C12.653 32.6094 13.9406 33.9698 15.5693 34.9092C17.2057 35.8486 19.0619 36.3184 21.1377 36.3184C22.6301 36.3184 23.9676 36.0944 25.1494 35.6475C26.3386 35.193 27.3609 34.5792 28.2168 33.8066C29.0804 33.0263 29.7668 32.144 30.2744 31.1592C30.7895 30.1668 31.1114 29.1365 31.2402 28.0684L26.2627 28.0459C26.1491 28.6667 25.9446 29.2195 25.6494 29.7041C25.3616 30.1889 24.9979 30.6025 24.5586 30.9434C24.1193 31.2766 23.615 31.5299 23.0469 31.7041C22.4863 31.8783 21.8759 31.9658 21.2168 31.9658C20.0429 31.9658 19.009 31.6781 18.1152 31.1025C17.2214 30.5269 16.5244 29.6744 16.0244 28.5459C15.532 27.4171 15.2852 26.0224 15.2852 24.3633C15.2852 22.7498 15.532 21.3787 16.0244 20.25C16.5168 19.1137 17.2097 18.2501 18.1035 17.6592C18.9974 17.0607 20.0466 16.7618 21.251 16.7617C21.9176 16.7617 22.5353 16.8565 23.1035 17.0459C23.6791 17.2352 24.1867 17.5074 24.626 17.8633C25.0654 18.2193 25.4258 18.6516 25.7061 19.1592C25.9863 19.6591 26.1718 20.2311 26.2627 20.875H31.2402C31.0812 19.5266 30.7175 18.3296 30.1494 17.2842C29.5888 16.2387 28.8607 15.3564 27.9668 14.6367C27.0729 13.9095 26.0467 13.3563 24.8877 12.9775C23.7362 12.5988 22.4862 12.4092 21.1377 12.4092ZM34.4482 12.7275V36H39.3691V12.7275H34.4482ZM42.2109 12.7275V16.7842H49.3359V36H54.1992V16.7842H61.3242V12.7275H42.2109ZM62.7881 12.7275L71.2773 27.7725V36H76.1631V27.7725L84.6523 12.7275H79.1406L73.834 22.75H73.6064L68.2998 12.7275H62.7881Z" fill="#F2F6FF"/>
</svg>
