<svg width="233" height="48" viewBox="0 0 233 48" fill="none" xmlns="http://www.w3.org/2000/svg">
<rect width="99" height="48" rx="10" fill="#FFD2CA"/>
<path d="M33.5106 20.9297H28.2223C28.1257 20.2455 27.9285 19.6378 27.6306 19.1065C27.3328 18.5672 26.9505 18.1084 26.4836 17.7301C26.0168 17.3518 25.4775 17.062 24.8657 16.8608C24.262 16.6596 23.606 16.5589 22.8977 16.5589C21.6178 16.5589 20.503 16.8769 19.5532 17.5128C18.6034 18.1406 17.8669 19.0582 17.3437 20.2656C16.8205 21.465 16.5589 22.9219 16.5589 24.6364C16.5589 26.3991 16.8205 27.8802 17.3437 29.0795C17.8749 30.2789 18.6155 31.1844 19.5653 31.7962C20.5151 32.4079 21.6138 32.7138 22.8615 32.7138C23.5617 32.7138 24.2097 32.6212 24.8053 32.4361C25.409 32.2509 25.9443 31.9813 26.4112 31.6271C26.878 31.2649 27.2644 30.8262 27.5703 30.3111C27.8842 29.7959 28.1015 29.2083 28.2223 28.5483L33.5106 28.5724C33.3738 29.7074 33.0317 30.8021 32.4843 31.8565C31.945 32.9029 31.2166 33.8407 30.299 34.6697C29.3894 35.4908 28.3027 36.1428 27.039 36.6257C25.7833 37.1006 24.3626 37.3381 22.7769 37.3381C20.5714 37.3381 18.5994 36.839 16.8607 35.8409C15.1302 34.8428 13.7618 33.398 12.7556 31.5064C11.7575 29.6148 11.2585 27.3248 11.2585 24.6364C11.2585 21.9399 11.7656 19.6458 12.7798 17.7543C13.794 15.8627 15.1704 14.4219 16.909 13.4318C18.6477 12.4337 20.6036 11.9347 22.7769 11.9347C24.2097 11.9347 25.5378 12.1359 26.7613 12.5384C27.9928 12.9408 29.0835 13.5284 30.0333 14.3011C30.9831 15.0658 31.7559 16.0036 32.3515 17.1143C32.9552 18.2251 33.3416 19.4969 33.5106 20.9297ZM42.1475 12.2727V37H36.9195V12.2727H42.1475ZM45.1671 16.5831V12.2727H65.4753V16.5831H57.905V37H52.7374V16.5831H45.1671ZM67.0309 12.2727H72.8867L78.5252 22.9219H78.7667L84.4052 12.2727H90.261L81.2418 28.2585V37H76.0501V28.2585L67.0309 12.2727ZM107.835 37V12.2727H117.59C119.466 12.2727 121.064 12.6309 122.384 13.3473C123.704 14.0556 124.71 15.0417 125.402 16.3054C126.103 17.5611 126.453 19.0099 126.453 20.652C126.453 22.294 126.099 23.7429 125.39 24.9986C124.682 26.2543 123.656 27.2322 122.311 27.9325C120.975 28.6328 119.357 28.983 117.458 28.983H111.24V24.7933H116.612C117.619 24.7933 118.448 24.6203 119.1 24.2741C119.76 23.92 120.251 23.433 120.573 22.8132C120.903 22.1854 121.068 21.465 121.068 20.652C121.068 19.831 120.903 19.1146 120.573 18.5028C120.251 17.883 119.76 17.4041 119.1 17.0661C118.44 16.7199 117.603 16.5469 116.588 16.5469H113.063V37H107.835ZM159.625 37V12.2727H169.381C171.248 12.2727 172.842 12.6068 174.162 13.2749C175.49 13.9349 176.5 14.8726 177.192 16.0881C177.893 17.2955 178.243 18.7161 178.243 20.3501C178.243 21.9922 177.889 23.4048 177.18 24.5881C176.472 25.7633 175.446 26.6648 174.102 27.2926C172.765 27.9205 171.147 28.2344 169.248 28.2344H162.716V24.0327H168.403C169.401 24.0327 170.23 23.8958 170.89 23.6222C171.55 23.3485 172.041 22.938 172.363 22.3906C172.693 21.8433 172.858 21.1631 172.858 20.3501C172.858 19.5291 172.693 18.8369 172.363 18.2734C172.041 17.71 171.546 17.2834 170.878 16.9936C170.218 16.6958 169.385 16.5469 168.379 16.5469H164.853V37H159.625ZM172.979 25.7472L179.124 37H173.353L167.34 25.7472H172.979ZM180.656 16.5831V12.2727H200.964V16.5831H193.394V37H188.226V16.5831H180.656ZM202.52 12.2727H208.375L214.014 22.9219H214.255L219.894 12.2727H225.75L216.731 28.2585V37H211.539V28.2585L202.52 12.2727Z" fill="#05031D"/>
<path d="M135.319 36.9088C134.643 37.2256 133.877 36.6704 134.013 35.9616L135.466 28.3939L129.3 23.0245C128.725 22.5221 129.024 21.6037 129.796 21.5045L138.367 20.391L142.189 13.468C142.534 12.844 143.467 12.844 143.811 13.468L147.633 20.391L156.205 21.5045C156.977 21.6037 157.276 22.5221 156.698 23.0245L150.535 28.3939L151.987 35.9616C152.124 36.6704 151.357 37.2256 150.682 36.9088L142.998 33.2993L135.319 36.9088Z" fill="#2929C8"/>
</svg>
