<svg width="233" height="48" viewBox="0 0 233 48" fill="none" xmlns="http://www.w3.org/2000/svg">
<rect width="99" height="48" rx="10" fill="#FFD2CA"/>
<path d="M35.4806 20.875H30.5033C30.4124 20.2311 30.2268 19.6591 29.9465 19.1591C29.6662 18.6515 29.3063 18.2197 28.8669 17.8636C28.4275 17.5076 27.92 17.2348 27.3442 17.0455C26.776 16.8561 26.1586 16.7614 25.4919 16.7614C24.2874 16.7614 23.2381 17.0606 22.3442 17.6591C21.4503 18.25 20.7571 19.1136 20.2647 20.25C19.7722 21.3788 19.526 22.75 19.526 24.3636C19.526 26.0227 19.7722 27.4167 20.2647 28.5455C20.7647 29.6742 21.4616 30.5265 22.3556 31.1023C23.2495 31.678 24.2836 31.9659 25.4578 31.9659C26.1169 31.9659 26.7268 31.8788 27.2874 31.7045C27.8556 31.5303 28.3594 31.2765 28.7988 30.9432C29.2381 30.6023 29.6018 30.1894 29.8897 29.7045C30.1851 29.2197 30.3897 28.6667 30.5033 28.0455L35.4806 28.0682C35.3518 29.1364 35.0298 30.1667 34.5147 31.1591C34.0071 32.1439 33.3215 33.0265 32.4578 33.8068C31.6018 34.5795 30.5791 35.1932 29.3897 35.6477C28.2078 36.0947 26.8707 36.3182 25.3783 36.3182C23.3025 36.3182 21.4465 35.8485 19.8101 34.9091C18.1813 33.9697 16.8934 32.6098 15.9465 30.8295C15.0071 29.0492 14.5374 26.8939 14.5374 24.3636C14.5374 21.8258 15.0147 19.6667 15.9692 17.8864C16.9238 16.1061 18.2192 14.75 19.8556 13.8182C21.4919 12.8788 23.3328 12.4091 25.3783 12.4091C26.7268 12.4091 27.9768 12.5985 29.1283 12.9773C30.2874 13.3561 31.3139 13.9091 32.2078 14.6364C33.1018 15.3561 33.8291 16.2386 34.3897 17.2841C34.9578 18.3295 35.3215 19.5265 35.4806 20.875ZM43.6094 12.7273V36H38.689V12.7273H43.6094ZM46.4514 16.7841V12.7273H65.565V16.7841H58.44V36H53.5764V16.7841H46.4514ZM67.0291 12.7273H72.5405L77.8473 22.75H78.0745L83.3814 12.7273H88.8927L80.4041 27.7727V36H75.5177V27.7727L67.0291 12.7273Z" fill="#05031D"/>
<path d="M105.433 36V12.7273H114.615C116.38 12.7273 117.883 13.0644 119.126 13.7386C120.368 14.4053 121.315 15.3333 121.967 16.5227C122.626 17.7045 122.955 19.0682 122.955 20.6136C122.955 22.1591 122.622 23.5227 121.955 24.7045C121.289 25.8864 120.323 26.8068 119.058 27.4659C117.8 28.125 116.277 28.4545 114.49 28.4545H108.637V24.5114H113.694C114.641 24.5114 115.421 24.3485 116.035 24.0227C116.656 23.6894 117.118 23.2311 117.421 22.6477C117.732 22.0568 117.887 21.3788 117.887 20.6136C117.887 19.8409 117.732 19.1667 117.421 18.5909C117.118 18.0076 116.656 17.5568 116.035 17.2386C115.414 16.9129 114.626 16.75 113.671 16.75H110.353V36H105.433ZM154.176 36V12.7273H163.358C165.116 12.7273 166.616 13.0417 167.858 13.6705C169.108 14.2917 170.059 15.1742 170.711 16.3182C171.37 17.4545 171.699 18.7917 171.699 20.3295C171.699 21.875 171.366 23.2045 170.699 24.3182C170.033 25.4242 169.067 26.2727 167.801 26.8636C166.544 27.4545 165.021 27.75 163.233 27.75H157.086V23.7955H162.438C163.377 23.7955 164.158 23.6667 164.779 23.4091C165.4 23.1515 165.862 22.7652 166.165 22.25C166.476 21.7348 166.631 21.0947 166.631 20.3295C166.631 19.5568 166.476 18.9053 166.165 18.375C165.862 17.8447 165.396 17.4432 164.767 17.1705C164.146 16.8902 163.362 16.75 162.415 16.75H159.097V36H154.176ZM166.745 25.4091L172.529 36H167.097L161.438 25.4091H166.745ZM173.97 16.7841V12.7273H193.084V16.7841H185.959V36H181.095V16.7841H173.97ZM194.548 12.7273H200.059L205.366 22.75H205.593L210.9 12.7273H216.411L207.923 27.7727V36H203.036V27.7727L194.548 12.7273Z" fill="#F2F6FF"/>
<path d="M129.319 35.9088C128.643 36.2256 127.877 35.6704 128.013 34.9616L129.466 27.3939L123.3 22.0245C122.725 21.5221 123.024 20.6037 123.796 20.5045L132.367 19.391L136.189 12.468C136.534 11.844 137.467 11.844 137.811 12.468L141.633 19.391L150.205 20.5045C150.977 20.6037 151.276 21.5221 150.698 22.0245L144.535 27.3939L145.987 34.9616C146.124 35.6704 145.357 36.2256 144.682 35.9088L136.998 32.2993L129.319 35.9088Z" fill="#2929C8"/>
</svg>
