<svg width="233" height="48" viewBox="0 0 233 48" fill="none" xmlns="http://www.w3.org/2000/svg">
<rect width="95" height="48" rx="5" fill="#E7E7FF"/>
<path d="M24.3246 36.476C17.1506 36.476 11.9486 31.104 11.9486 24.1C11.9486 17.096 17.1506 11.724 24.3246 11.724C28.6426 11.724 32.4506 13.866 34.5246 17.232L29.8326 19.952C28.7786 18.116 26.7386 17.028 24.3246 17.028C20.1086 17.028 17.3886 19.85 17.3886 24.1C17.3886 28.35 20.1086 31.172 24.3246 31.172C26.7386 31.172 28.8126 30.084 29.8326 28.248L34.5246 30.968C32.4846 34.334 28.6766 36.476 24.3246 36.476ZM36.7341 12.2H42.1741V36H36.7341V12.2ZM61.9034 12.2V17.436H55.7834V36H50.3434V17.436H44.2234V12.2H61.9034ZM83.3247 12.2L75.3347 26.854V36H69.8947V26.854L61.9047 12.2H68.0927L72.6147 21.38L77.1367 12.2H83.3247ZM118.511 12.2C123.203 12.2 126.841 15.838 126.841 20.36C126.841 24.882 123.203 28.52 118.511 28.52H114.941V36H109.501V12.2H118.511ZM118.511 23.42C120.177 23.42 121.401 22.094 121.401 20.36C121.401 18.626 120.177 17.3 118.511 17.3H114.941V23.42H118.511ZM141.955 36L140.765 32.26H131.925L130.735 36H124.785L132.877 12.2H139.813L147.905 36H141.955ZM133.557 27.16H139.133L136.345 18.422L133.557 27.16ZM162.106 36L157.618 28.18H155.034V36H149.594V12.2H159.114C163.636 12.2 167.274 15.838 167.274 20.36C167.274 23.284 165.506 25.936 162.888 27.262L167.954 36H162.106ZM155.034 17.3V23.42H159.114C160.61 23.42 161.834 22.094 161.834 20.36C161.834 18.626 160.61 17.3 159.114 17.3H155.034ZM185.654 12.2V17.436H179.534V36H174.094V17.436H167.974V12.2H185.654ZM207.075 12.2L199.085 26.854V36H193.645V26.854L185.655 12.2H191.843L196.365 21.38L200.887 12.2H207.075Z" fill="#05031D"/>
</svg>
