<svg width="51" height="33" viewBox="0 0 51 33" fill="none" xmlns="http://www.w3.org/2000/svg">
<rect width="29" height="33" rx="5" fill="#FFD2CA"/>
<path d="M20.5785 13.5469H17.4677C17.4109 13.1444 17.2949 12.7869 17.1197 12.4744C16.9445 12.1572 16.7196 11.8873 16.445 11.6648C16.1703 11.4422 15.8531 11.2718 15.4933 11.1534C15.1381 11.035 14.7522 10.9759 14.3356 10.9759C13.5827 10.9759 12.927 11.1629 12.3683 11.5369C11.8095 11.9062 11.3763 12.446 11.0685 13.1562C10.7608 13.8617 10.6069 14.7187 10.6069 15.7273C10.6069 16.7642 10.7608 17.6354 11.0685 18.3409C11.381 19.0464 11.8166 19.5791 12.3754 19.9389C12.9341 20.2988 13.5804 20.4787 14.3143 20.4787C14.7262 20.4787 15.1074 20.4242 15.4577 20.3153C15.8129 20.2064 16.1277 20.0478 16.4023 19.8395C16.677 19.6264 16.9042 19.3684 17.0842 19.0653C17.2688 18.7623 17.3967 18.4167 17.4677 18.0284L20.5785 18.0426C20.498 18.7102 20.2968 19.3542 19.9748 19.9744C19.6576 20.59 19.229 21.1416 18.6893 21.6293C18.1542 22.1122 17.515 22.4957 16.7717 22.7798C16.033 23.0592 15.1973 23.1989 14.2646 23.1989C12.9672 23.1989 11.8072 22.9053 10.7844 22.3182C9.76645 21.7311 8.96153 20.8812 8.36967 19.7685C7.78255 18.6558 7.48899 17.3087 7.48899 15.7273C7.48899 14.1411 7.78729 12.7917 8.38388 11.679C8.98047 10.5663 9.79013 9.71875 10.8129 9.13636C11.8356 8.54924 12.9862 8.25568 14.2646 8.25568C15.1074 8.25568 15.8886 8.37405 16.6083 8.6108C17.3327 8.84754 17.9743 9.19318 18.533 9.64773C19.0917 10.0975 19.5463 10.6491 19.8967 11.3026C20.2518 11.956 20.479 12.7041 20.5785 13.5469Z" fill="#05031D"/>
<path d="M37.8363 22.9392C37.4262 23.1504 36.9608 22.7803 37.0437 22.3078L37.9256 17.2626L34.1824 13.683C33.8328 13.3481 34.0145 12.7358 34.4831 12.6697L39.6872 11.9273L42.0077 7.31199C42.217 6.896 42.7833 6.896 42.9926 7.31199L45.3131 11.9273L50.5172 12.6697C50.9858 12.7358 51.1675 13.3481 50.8168 13.683L47.0747 17.2626L47.9566 22.3078C48.0395 22.7803 47.5741 23.1504 47.164 22.9392L42.4985 20.5329L37.8363 22.9392Z" fill="#2929C8"/>
</svg>
