<svg width="18" height="17" viewBox="0 0 18 17" fill="none" xmlns="http://www.w3.org/2000/svg">
<path d="M7.91029 13.0736C8.68934 13.0736 9.46076 12.9287 10.1805 12.6471C10.9003 12.3655 11.5542 11.9528 12.1051 11.4326C12.656 10.9123 13.0929 10.2947 13.3911 9.61491C13.6892 8.93515 13.8426 8.20659 13.8426 7.47083C13.8426 6.73506 13.6892 6.0065 13.3911 5.32674C13.0929 4.64698 12.656 4.02934 12.1051 3.50907C11.5542 2.98881 10.9003 2.57611 10.1805 2.29454C9.46076 2.01298 8.68934 1.86806 7.91029 1.86806C6.33694 1.86806 4.82802 2.45835 3.71549 3.50907C2.60296 4.55979 1.97795 5.98488 1.97795 7.47083C1.97795 8.95677 2.60296 10.3819 3.71549 11.4326C4.82802 12.4833 6.33694 13.0736 7.91029 13.0736ZM14.159 12.052L17.6987 15.395C17.793 15.4812 17.8683 15.5843 17.92 15.6983C17.9717 15.8122 17.9989 15.9348 18 16.0588C18.001 16.1827 17.9759 16.3057 17.9261 16.4204C17.8763 16.5351 17.8028 16.6394 17.7099 16.727C17.617 16.8146 17.5066 16.8838 17.385 16.9307C17.2635 16.9776 17.1333 17.0011 17.002 17C16.8707 16.9988 16.741 16.9729 16.6204 16.9239C16.4998 16.8749 16.3908 16.8037 16.2996 16.7145L12.76 13.3715C11.1706 14.5367 9.17071 15.0861 7.16752 14.9077C5.16432 14.7294 3.30838 13.8368 1.9775 12.4116C0.646626 10.9864 -0.0591376 9.13573 0.00388472 7.23637C0.0669071 5.33701 0.893978 3.53173 2.31673 2.18802C3.73948 0.844311 5.65096 0.06319 7.66205 0.00366889C9.67314 -0.0558522 11.6327 0.610702 13.1417 1.86764C14.6507 3.12458 15.5959 4.87741 15.7847 6.76932C15.9735 8.66122 15.3918 10.55 14.158 12.0511L14.159 12.052Z" fill="#3333CC"/>
</svg>
